<svg xmlns="http://www.w3.org/2000/svg" viewBox="0 0 36 36">
    <path fill="#FFC60A" fill-rule="evenodd" d="M0 18C0 8.058 8.058 0 18 0s18 8.058 18 18-8.058 18-18 18S0 27.942 0 18zm18.367 6c-.31.007-.613.088-.91.244a1.73 1.73 0 0 0-.703.68 1.828 1.828 0 0 0-.254.95c.004.337.088.65.254.94a1.832 1.832 0 0 0 1.614.935c.33.008.642-.074.935-.243.294-.17.523-.4.688-.691.166-.291.252-.606.259-.945 0-.333-.086-.648-.259-.946a1.748 1.748 0 0 0-.713-.685 1.944 1.944 0 0 0-.91-.239zm.008-15.75a2.382 2.382 0 0 0-2.371 2.613l.931 9.58a1.446 1.446 0 0 0 2.88 0l.931-9.58a2.382 2.382 0 0 0-2.371-2.613z"/>
</svg>
